# Blender 3.3.1
# www.blender.org
o back_wall
v 549.599976 -0.000091 559.200012
v 0.000000 -0.000091 559.200012
v 0.000000 548.799927 559.200073
v 556.000000 548.799927 559.200073
vn -0.0000 -0.0000 -1.0000
s 0
f 1//1 3//1 4//1
f 1//1 2//1 3//1
o ceiling
v 556.000000 548.799988 0.000089
v 556.000000 548.799927 559.200073
v 0.000000 548.799927 559.200073
v 0.000000 548.799988 0.000089
vn -0.0000 -1.0000 -0.0000
s 0
f 6//2 8//2 5//2
f 6//2 7//2 8//2
o floor
v 552.799988 0.000000 0.000000
v 0.000000 0.000000 0.000000
v 0.000000 -0.000091 559.200012
v 549.599976 -0.000091 559.200012
v 130.000000 -0.000011 65.000000
v 82.000000 -0.000037 225.000000
v 240.000000 -0.000044 272.000000
v 290.000000 -0.000019 114.000000
v 423.000000 -0.000040 247.000000
v 265.000000 -0.000048 296.000000
v 314.000000 -0.000074 456.000000
v 472.000000 -0.000066 406.000000
vn -0.0000 1.0000 -0.0000
vn -0.0000 -1.0000 -0.0000
s 0
f 10//3 12//3 9//3
f 15//4 13//4 16//4
f 20//4 18//4 17//4
f 10//3 11//3 12//3
f 15//4 14//4 13//4
f 20//4 19//4 18//4
o green_wall
v 0.000000 -0.000091 559.200012
v 0.000000 0.000000 0.000000
v 0.000000 548.799988 0.000089
v 0.000000 548.799927 559.200073
vn 1.0000 -0.0000 -0.0000
s 0
f 22//5 24//5 21//5
f 22//5 23//5 24//5
o light
v 343.000000 547.999939 227.000092
v 343.000000 547.999939 332.000092
v 213.000000 547.999939 332.000092
v 213.000000 547.999939 227.000092
vn -0.0000 -1.0000 -0.0000
s 0
f 26//6 28//6 25//6
f 26//6 27//6 28//6
o red_wall
v 552.799988 0.000000 0.000000
v 549.599976 -0.000091 559.200012
v 556.000000 548.799927 559.200073
v 556.000000 548.799988 0.000089
vn -1.0000 0.0058 -0.0000
vn -0.9999 0.0117 -0.0057
s 0
f 29//7 31//7 32//7
f 29//8 30//8 31//8
o short_block
v 130.000000 164.999985 65.000031
v 82.000000 164.999969 225.000031
v 240.000000 164.999954 272.000031
v 290.000000 164.999985 114.000031
v 290.000000 -0.000019 114.000000
v 290.000000 164.999985 114.000031
v 240.000000 164.999954 272.000031
v 240.000000 -0.000044 272.000000
v 130.000000 -0.000011 65.000000
v 130.000000 164.999985 65.000031
v 290.000000 164.999985 114.000031
v 290.000000 -0.000019 114.000000
v 82.000000 -0.000037 225.000000
v 82.000000 164.999969 225.000031
v 130.000000 164.999985 65.000031
v 130.000000 -0.000011 65.000000
v 240.000000 -0.000044 272.000000
v 240.000000 164.999954 272.000031
v 82.000000 164.999969 225.000031
v 82.000000 -0.000037 225.000000
vn -0.0000 1.0000 -0.0000
vn 0.9534 -0.0000 0.3017
vn 0.2928 -0.0000 -0.9562
vn -0.9578 -0.0000 -0.2873
vn -0.2851 -0.0000 0.9585
s 0
f 33//9 35//9 36//9
f 38//10 40//10 37//10
f 42//11 44//11 41//11
f 46//12 48//12 45//12
f 50//13 52//13 49//13
f 33//9 34//9 35//9
f 38//10 39//10 40//10
f 42//11 43//11 44//11
f 46//12 47//12 48//12
f 50//13 51//13 52//13
o tall_block
v 423.000000 329.999969 247.000061
v 265.000000 329.999939 296.000061
v 314.000000 329.999939 456.000061
v 472.000000 329.999939 406.000061
v 423.000000 -0.000040 247.000000
v 423.000000 329.999969 247.000061
v 472.000000 329.999939 406.000061
v 472.000000 -0.000066 406.000000
v 472.000000 -0.000066 406.000000
v 472.000000 329.999939 406.000061
v 314.000000 329.999939 456.000061
v 314.000000 -0.000074 456.000000
v 314.000000 -0.000074 456.000000
v 314.000000 329.999939 456.000061
v 265.000000 329.999939 296.000061
v 265.000000 -0.000048 296.000000
v 265.000000 -0.000048 296.000000
v 265.000000 329.999939 296.000061
v 423.000000 329.999969 247.000061
v 423.000000 -0.000040 247.000000
vn -0.0000 1.0000 -0.0000
vn 0.9556 -0.0000 -0.2945
vn 0.3017 -0.0000 0.9534
vn -0.9562 -0.0000 0.2928
vn -0.2962 -0.0000 -0.9551
s 0
f 54//14 56//14 53//14
f 58//15 60//15 57//15
f 62//16 64//16 61//16
f 66//17 68//17 65//17
f 70//18 72//18 69//18
f 54//14 55//14 56//14
f 58//15 59//15 60//15
f 62//16 63//16 64//16
f 66//17 67//17 68//17
f 70//18 71//18 72//18
